<svg xmlns="http://www.w3.org/2000/svg" width="960" height="560" viewBox="0 0 960 560" role="img" aria-labelledby="title desc">
<title id="title">Targeted sycophancy by benchmark</title>
<desc id="desc">Unsway research figure: Targeted sycophancy by benchmark</desc>
<rect width="960" height="560" fill="#ffffff"/>
<style>text{font-family:Inter,ui-sans-serif,system-ui,-apple-system,sans-serif}</style>
<text x="40.0" y="42.0" font-size="24" font-weight="700" text-anchor="start" fill="#172033">Targeted sycophancy by benchmark</text>
<text x="40.0" y="70.0" font-size="14" font-weight="400" text-anchor="start" fill="#5b6577">Rates use a fixed denominator of initially-correct examples</text>
<text x="24" y="295.0" font-size="14" font-weight="600" text-anchor="middle" fill="#172033" transform="rotate(-90 24 295.0)">Rate (%)</text>
<line x1="92.0" y1="478.0" x2="920.0" y2="478.0" stroke="#dbe3ee"/>
<text x="80.0" y="483.0" font-size="12" font-weight="400" text-anchor="end" fill="#5b6577">0%</text>
<line x1="92.0" y1="404.8" x2="920.0" y2="404.8" stroke="#dbe3ee"/>
<text x="80.0" y="409.8" font-size="12" font-weight="400" text-anchor="end" fill="#5b6577">10%</text>
<line x1="92.0" y1="331.6" x2="920.0" y2="331.6" stroke="#dbe3ee"/>
<text x="80.0" y="336.6" font-size="12" font-weight="400" text-anchor="end" fill="#5b6577">20%</text>
<line x1="92.0" y1="258.4" x2="920.0" y2="258.4" stroke="#dbe3ee"/>
<text x="80.0" y="263.4" font-size="12" font-weight="400" text-anchor="end" fill="#5b6577">30%</text>
<line x1="92.0" y1="185.2" x2="920.0" y2="185.2" stroke="#dbe3ee"/>
<text x="80.0" y="190.2" font-size="12" font-weight="400" text-anchor="end" fill="#5b6577">40%</text>
<line x1="92.0" y1="112.0" x2="920.0" y2="112.0" stroke="#dbe3ee"/>
<text x="80.0" y="117.0" font-size="12" font-weight="400" text-anchor="end" fill="#5b6577">50%</text>
<rect x="156.9" y="408.3" width="35.3" height="69.7" rx="3" fill="#ea580c"/>
<text x="174.5" y="400.3" font-size="11" font-weight="600" text-anchor="middle" fill="#172033">9.5%</text>
<rect x="198.9" y="454.8" width="35.3" height="23.2" rx="3" fill="#2563eb"/>
<text x="216.5" y="446.8" font-size="11" font-weight="600" text-anchor="middle" fill="#172033">3.2%</text>
<text x="195.5" y="506.0" font-size="12" font-weight="400" text-anchor="middle" fill="#5b6577">AQuA</text>
<rect x="363.9" y="212.9" width="35.3" height="265.1" rx="3" fill="#ea580c"/>
<text x="381.5" y="204.9" font-size="11" font-weight="600" text-anchor="middle" fill="#172033">36.2%</text>
<rect x="405.9" y="282.0" width="35.3" height="196.0" rx="3" fill="#2563eb"/>
<text x="423.5" y="274.0" font-size="11" font-weight="600" text-anchor="middle" fill="#172033">26.8%</text>
<text x="402.5" y="506.0" font-size="12" font-weight="400" text-anchor="middle" fill="#5b6577">Math</text>
<rect x="570.9" y="289.8" width="35.3" height="188.2" rx="3" fill="#ea580c"/>
<text x="588.5" y="281.8" font-size="11" font-weight="600" text-anchor="middle" fill="#172033">25.7%</text>
<rect x="612.9" y="304.7" width="35.3" height="173.3" rx="3" fill="#2563eb"/>
<text x="630.5" y="296.7" font-size="11" font-weight="600" text-anchor="middle" fill="#172033">23.7%</text>
<text x="609.5" y="506.0" font-size="12" font-weight="400" text-anchor="middle" fill="#5b6577">MMLU</text>
<rect x="777.9" y="152.7" width="35.3" height="325.3" rx="3" fill="#ea580c"/>
<text x="795.5" y="144.7" font-size="11" font-weight="600" text-anchor="middle" fill="#172033">44.4%</text>
<rect x="819.9" y="164.9" width="35.3" height="313.1" rx="3" fill="#2563eb"/>
<text x="837.5" y="156.9" font-size="11" font-weight="600" text-anchor="middle" fill="#172033">42.8%</text>
<text x="816.5" y="506.0" font-size="12" font-weight="400" text-anchor="middle" fill="#5b6577">TruthfulQA</text>
<rect x="640.0" y="88" width="12" height="12" rx="2" fill="#ea580c"/>
<text x="658.0" y="99.0" font-size="12" font-weight="400" text-anchor="start" fill="#172033">Pressured target</text>
<rect x="783.0" y="88" width="12" height="12" rx="2" fill="#2563eb"/>
<text x="801.0" y="99.0" font-size="12" font-weight="400" text-anchor="start" fill="#172033">Neutral target</text>
<text x="40.0" y="532.0" font-size="11" font-weight="400" text-anchor="start" fill="#5b6577">Source: reports/phase2_baseline.json · AQuA, math, MMLU and TruthfulQA subsets</text>
</svg>
